<svg xmlns="http://www.w3.org/2000/svg" viewBox="0 0 232.74 205.77"><defs><style>.cls-1{fill:#2eb84b;}.cls-2{fill:#34b14a;}</style></defs><title>Recurso 5</title><g id="Capa_2" data-name="Capa 2"><g id="Capa_4" data-name="Capa 4"><path class="cls-1" d="M95.59,94.61h0a.38.38,0,0,0,0-.15Zm12.16,6a12.79,12.79,0,0,0,2.54-.25,15.33,15.33,0,0,1-2.53.21Zm20.82-21c.38.18.74.39,1.1.59h0Z"/><path class="cls-1" d="M129.67,80.16l-.48,1.08c-.06.1-.24.54-.6,1.24-1.62,3.26-6.45,11.92-13.47,16a6.11,6.11,0,0,1-.79.44,9,9,0,0,1-1,.46,7,7,0,0,1-.9.36,14.79,14.79,0,0,1-2.16.62,14.48,14.48,0,0,1-2.54.25,10.8,10.8,0,0,1-1.39-.08,9.85,9.85,0,0,1-1.21-.2,5.06,5.06,0,0,1-.77-.18,4.92,4.92,0,0,1-.85-.26,1.39,1.39,0,0,1-.33-.1c-.34-.13-.67-.26-1-.41s-.48-.21-.72-.34A18.09,18.09,0,0,1,99,97.55a12.43,12.43,0,0,1-1.24-.92c-.54-.44-1.08-.93-1.62-1.44l-.54-.52a.38.38,0,0,0,0-.15.38.38,0,0,1,0-.15l.16-.34v-.18c.21-.67.44-1.31.67-1.93a23.38,23.38,0,0,1,30.35-13.13l.58.24,1.21.56A11.45,11.45,0,0,1,129.67,80.16Z"/><path class="cls-1" d="M96.44,91.86l-.62,2c.21-.67.44-1.31.67-1.93Z"/><path class="cls-1" d="M141.65,100.57a23.19,23.19,0,0,1-3,11.42,22.89,22.89,0,0,1-1.36,2.15c-.75-.48-1.44-1-2.11-1.49-6.5-4.8-9.61-9.71-9.25-14.57.38-5.45,5.06-9.28,8-11.18a17.44,17.44,0,0,1,2.31-1.29.39.39,0,0,0,.08.1l.61.78A23,23,0,0,1,141.65,100.57Z"/><path class="cls-1" d="M131.14,120.11a19.89,19.89,0,0,1-2.37,1.36A23,23,0,0,1,118.23,124a23.46,23.46,0,0,1-22.08-15.71c-.12-.33-.23-.66-.33-1s-.28-1-.39-1.49c.39-.08,1.26-.31,2.52-.57,5.3-1,17.3-2.54,25.5,2.83a16.87,16.87,0,0,1,7,9.38A19.69,19.69,0,0,1,131.14,120.11Z"/><path class="cls-1" d="M136.31,85.71a.39.39,0,0,1-.08-.1h0Z"/><path class="cls-1" d="M138.76,112l-1.42,2.13h0A22.89,22.89,0,0,0,138.7,112Z"/><polygon class="cls-1" points="187.35 81 170.76 105.33 180.05 122.78 232.74 99.1 187.35 81"/><path class="cls-1" d="M68.53,150.08l16.52-1.37A2.44,2.44,0,0,1,87.44,150l12.32,24.18a2.47,2.47,0,0,1-.68,3.05L63.33,205.09a2.45,2.45,0,0,1-3.44-.43,2.48,2.48,0,0,1-.49-1.84l6.91-50.62A2.46,2.46,0,0,1,68.53,150.08Z"/><path class="cls-1" d="M166.91,150.09l-16.66-1.39A2.36,2.36,0,0,0,148,150l-12.38,24.31a2.35,2.35,0,0,0,.65,2.93l36,28a2.35,2.35,0,0,0,3.78-2.18l-7-50.93A2.35,2.35,0,0,0,166.91,150.09Z"/><path class="cls-1" d="M116.64,142.38l-15.88,6.56a1.68,1.68,0,0,0-.92,2.19l0,0L116,188a1.68,1.68,0,0,0,2.24.8,1.73,1.73,0,0,0,.76-.73l18.15-36.77a1.67,1.67,0,0,0-.75-2.24l-.18-.08-18.41-6.6A1.63,1.63,0,0,0,116.64,142.38Z"/><polygon class="cls-1" points="102.36 35.11 64.18 0 66.22 50.04 94.53 50.04 102.36 35.11"/><polygon class="cls-1" points="132.58 35.11 170.76 0 168.73 50.04 140.42 50.04 132.58 35.11"/><path class="cls-1" d="M84.69,78.11,86.25,61a1.69,1.69,0,0,0-1.54-1.83h0L44.61,56.39A1.68,1.68,0,0,0,43.13,59L67.27,92.17a1.69,1.69,0,0,0,2.35.37l.14-.12,14.4-13.24A1.69,1.69,0,0,0,84.69,78.11Z"/><path class="cls-1" d="M150.62,78.11,149.07,61a1.67,1.67,0,0,1,1.5-1.83h.05l40.14-2.83A1.68,1.68,0,0,1,192.18,59L168,92.17a1.67,1.67,0,0,1-2.33.38l-.16-.13L151.16,79.19A1.68,1.68,0,0,1,150.62,78.11Z"/><polygon class="cls-1" points="45.39 81 61.98 105.33 52.69 122.78 0 99.1 45.39 81"/><path class="cls-2" d="M117.4,24.84c8.84,18.38,14.94,31.28,24.13,50.39-17.93-8.31-31-7.7-47.74-1Z"/><path class="cls-2" d="M52.91,143c10.51-17.41,17.94-29.53,28.87-47.62C84.62,114.9,92.29,125.5,107,135.78Z"/><path class="cls-2" d="M181.83,142.24c-20.18-2.44-34.29-4.24-55.27-6.79,16.61-10.59,23.13-21.93,26.49-39.53Z"/></g></g></svg>